<svg id="kreditbee" width="105" height="28" viewBox="0 0 27.781249 7.4083339" xml:space="preserve" xmlns="http://www.w3.org/2000/svg" xmlns:svg="http://www.w3.org/2000/svg">
  <defs id="defs1">
    <style id="style1">.cls-1{fill:#fdd535}.cls-2{fill:#131a2d}.cls-3{fill:none}</style>
  </defs>
  <g id="layer1">
    <g id="LOGO_horizontal-2" data-name="LOGO_horizontal" transform="matrix(0.15377292,0,0,0.15377292,0.03583868,0.0680522)">
      <path id="Path_43" d="m 561.131,343.709 a 3.679,3.679 0 0 0 -4.32,-2.906 l -2.631,0.515 a 0.27,0.27 0 0 1 -0.051,0.005 0.219,0.219 0 0 1 -0.193,-0.13 0.208,0.208 0 0 1 0.028,-0.233 l 1.844,-2.3 a 3.661,3.661 0 0 0 0.525,-0.9 3.561,3.561 0 0 0 -2.04,-4.651 3.489,3.489 0 0 0 -1.246,-0.23 3.64,3.64 0 0 0 -3.345,2.281 l -3.4,8.5 a 2.423,2.423 0 0 0 -0.145,0.548 2.341,2.341 0 0 0 2,2.637 l 8.864,1.217 a 3.8,3.8 0 0 0 0.5,0.033 3.681,3.681 0 0 0 3.613,-4.388 z" class="cls-1" data-name="Path 43" transform="translate(-516.974,-320.175)" />
      <path id="Path_44" d="m 2789.42,458.171 a 3.3,3.3 0 0 1 -2.069,-0.174 2.408,2.408 0 0 1 -1.37,-1.351 l 6.836,-1.562 a 1.8,1.8 0 0 0 1.355,-2.158 5.2,5.2 0 0 0 -2.622,-3.652 6.249,6.249 0 0 0 -4.468,-0.527 6.175,6.175 0 0 0 -3.844,2.611 5.888,5.888 0 0 0 -0.774,4.843 5.979,5.979 0 0 0 2.769,4.046 6.364,6.364 0 0 0 4.818,0.644 6.757,6.757 0 0 0 4.249,-2.957 l -2.135,-1.466 a 0.19,0.19 0 0 0 -0.265,0.051 3.884,3.884 0 0 1 -2.48,1.652 z m -3.312,-5.713 a 3.034,3.034 0 0 1 1.651,-1 2.551,2.551 0 0 1 1.785,0.193 2.4,2.4 0 0 1 1.16,1.445 l -5.173,1.182 a 2.326,2.326 0 0 1 0.576,-1.818 z" class="cls-2" data-name="Path 44" transform="translate(-2626.834,-429.324)" />
      <path id="Path_45" d="m 2568.058,458.176 a 3.3,3.3 0 0 1 -2.069,-0.174 2.407,2.407 0 0 1 -1.369,-1.351 l 6.836,-1.562 a 1.8,1.8 0 0 0 1.355,-2.158 5.194,5.194 0 0 0 -2.622,-3.652 6.251,6.251 0 0 0 -4.468,-0.527 6.175,6.175 0 0 0 -3.843,2.611 5.888,5.888 0 0 0 -0.774,4.844 5.978,5.978 0 0 0 2.77,4.046 6.364,6.364 0 0 0 4.817,0.644 6.758,6.758 0 0 0 4.249,-2.957 l -2.135,-1.466 a 0.19,0.19 0 0 0 -0.266,0.051 3.883,3.883 0 0 1 -2.481,1.651 z m -3.312,-5.712 a 3.033,3.033 0 0 1 1.651,-1 2.551,2.551 0 0 1 1.785,0.193 2.4,2.4 0 0 1 1.16,1.445 l -5.173,1.182 a 2.326,2.326 0 0 1 0.578,-1.821 z" class="cls-2" data-name="Path 45" transform="translate(-2417.972,-429.329)" />
      <path id="Path_46" d="m 2329.539,397.834 a 4.122,4.122 0 0 0 -2.327,-1.318 q 0.405,-0.18 0.562,-0.259 a 4.278,4.278 0 0 0 0.562,-0.394 3.223,3.223 0 0 0 1.192,-2.748 4.078,4.078 0 0 0 -1.057,-2.748 3.952,3.952 0 0 0 -1.742,-1.036 8.8,8.8 0 0 0 -2.754,-0.383 h -5.875 a 0.242,0.242 0 0 0 -0.242,0.242 v 15.5 h 6.88 q 3.238,0 4.542,-1.464 a 4.242,4.242 0 0 0 1.125,-2.906 3.675,3.675 0 0 0 -0.866,-2.486 z m -8.173,-5.912 h 1.687 a 5.159,5.159 0 0 1 2.2,0.338 1.41,1.41 0 0 1 0.652,1.385 1.33,1.33 0 0 1 -0.708,1.363 5.623,5.623 0 0 1 -2.17,0.315 h -1.664 z m 4.666,9.426 a 5.3,5.3 0 0 1 -2.259,0.372 h -2.406 v -3.626 h 2.069 a 6.827,6.827 0 0 1 2.552,0.349 1.408,1.408 0 0 1 0.8,1.442 1.472,1.472 0 0 1 -0.753,1.464 z" class="cls-2" data-name="Path 46" transform="translate(-2188.649,-373.081)" />
      <path id="Path_47" d="m 2125.316,403.168 a 3.83,3.83 0 0 1 -1.352,0.61 6.843,6.843 0 0 1 -1.686,0.2 5.01,5.01 0 0 1 -3.552,-1.172 4.487,4.487 0 0 1 -1.256,-3.445 v -5.286 h -1.094 v -2.871 h 1.094 v -3.029 a 0.1,0.1 0 0 1 0.1,-0.1 h 3.522 a 0.1,0.1 0 0 1 0.1,0.1 v 3.029 h 3.206 v 2.871 h -3.198 v 5.239 a 1.756,1.756 0 0 0 0.419,1.256 1.553,1.553 0 0 0 1.184,0.443 2.4,2.4 0 0 0 1.507,-0.478 z" class="cls-2" data-name="Path 47" transform="translate(-1998.546,-372.255)" />
      <path id="Path_48" d="m 2009.146,337.557 a 2.026,2.026 0 0 1 0,-2.966 2.369,2.369 0 0 1 1.675,-0.6 2.424,2.424 0 0 1 1.674,0.574 1.842,1.842 0 0 1 0.646,1.435 2.031,2.031 0 0 1 -0.646,1.543 2.338,2.338 0 0 1 -1.674,0.61 2.366,2.366 0 0 1 -1.675,-0.596 z m -0.086,2.392 h 3.522 a 0.1,0.1 0 0 1 0.1,0.1 v 12.765 h -3.731 v -12.76 a 0.1,0.1 0 0 1 0.1,-0.1 z" class="cls-2" data-name="Path 48" transform="translate(-1896.762,-321.228)" />
      <path id="Path_49" d="M 1741.52,353.215 V 370.8 h -3.564 v -1.48 a 4.6,4.6 0 0 1 -3.83,1.674 6.516,6.516 0 0 1 -3.207,-0.793 5.677,5.677 0 0 1 -2.251,-2.263 7.512,7.512 0 0 1 0,-6.811 5.679,5.679 0 0 1 2.251,-2.263 6.521,6.521 0 0 1 3.207,-0.793 4.5,4.5 0 0 1 3.662,1.47 v -6.327 a 0.161,0.161 0 0 1 0.161,-0.161 h 3.409 a 0.161,0.161 0 0 1 0.162,0.162 z m -4.66,13.977 a 4.109,4.109 0 0 0 0,-5.191 3.292,3.292 0 0 0 -4.665,0 3.606,3.606 0 0 0 -0.923,2.6 3.466,3.466 0 0 0 1,2.519 3,3 0 0 0 2.268,1.045 3.072,3.072 0 0 0 2.321,-0.969 z" class="cls-2" data-name="Path 49" transform="translate(-1631.961,-339.213)" />
      <path id="Path_50" d="m 1502.473,459.158 a 3.3,3.3 0 0 1 -2.069,-0.174 2.408,2.408 0 0 1 -1.369,-1.351 l 6.836,-1.561 a 1.8,1.8 0 0 0 1.356,-2.158 5.2,5.2 0 0 0 -2.621,-3.652 6.25,6.25 0 0 0 -4.468,-0.528 6.174,6.174 0 0 0 -3.844,2.611 5.886,5.886 0 0 0 -0.774,4.843 5.979,5.979 0 0 0 2.769,4.046 6.363,6.363 0 0 0 4.818,0.644 6.758,6.758 0 0 0 4.249,-2.957 l -2.135,-1.466 a 0.19,0.19 0 0 0 -0.265,0.051 3.888,3.888 0 0 1 -2.483,1.652 z m -3.311,-5.713 a 3.034,3.034 0 0 1 1.651,-1 2.551,2.551 0 0 1 1.785,0.193 2.4,2.4 0 0 1 1.16,1.445 l -5.173,1.181 a 2.327,2.327 0 0 1 0.577,-1.819 z" class="cls-2" data-name="Path 50" transform="translate(-1412.562,-430.255)" />
      <g id="_Group_" data-name="&lt;Group&gt;" transform="translate(74.53,19.34)">
        <path id="Path_51" d="m 1356.738,453.609 0.01,-0.06 a 5.793,5.793 0 0 1 1.8,-2.544 3.605,3.605 0 0 0 -3.819,-0.031 5.672,5.672 0 0 0 -1.63,1.261 v -1.43 a 0.169,0.169 0 0 0 -0.169,-0.169 h -3.15 a 0.185,0.185 0 0 0 -0.185,0.185 v 11.933 h 3.5 v -5.248 a 4.869,4.869 0 0 1 0.742,-2.827 2.551,2.551 0 0 1 2.248,-1.07 h 0.652 z" class="cls-2" data-name="Path 51" transform="translate(-1349.591,-450.427)" />
      </g>
      <g id="_Group_2" data-name="&lt;Group&gt;" transform="translate(60.043,15.992)">
        <path id="Path_52" d="m 1106.31,391.146 h -3.81 a 0.233,0.233 0 0 0 -0.2,0.106 c -0.534,0.825 -4.055,6.178 -5.634,6.447 a 0.1,0.1 0 0 1 -0.119,-0.1 v -6.221 a 0.234,0.234 0 0 0 -0.234,-0.234 h -3.033 a 0.234,0.234 0 0 0 -0.234,0.234 v 15.482 h 3.5 v -6 a 0.168,0.168 0 0 1 0.189,-0.167 8.3,8.3 0 0 1 4.644,2.551 4.63,4.63 0 0 1 1.4,3.615 h 3.5 a 9.061,9.061 0 0 0 -4.884,-7.765 c -0.879,-0.476 -0.812,-0.493 -0.155,-1.261 3.419,-4 4.749,-5.665 5.244,-6.313 a 0.234,0.234 0 0 0 -0.186,-0.375 z" class="cls-2" data-name="Path 52" transform="translate(-1093.052,-391.146)" />
      </g>
      <g id="Group_1" data-name="Group 1" transform="translate(13.579,4.959)">
        <path id="Path_53" d="m 565.176,350.49 -2.631,0.515 a 0.787,0.787 0 0 1 -0.765,-1.264 l 1.842,-2.3 a 3.09,3.09 0 0 0 0.443,-0.76 3,3 0 0 0 -1.717,-3.914 3.028,3.028 0 0 0 -3.866,1.734 l -3.4,8.5 a 1.856,1.856 0 0 0 -0.111,0.418 1.776,1.776 0 0 0 1.518,2 h 0.031 l 8.831,1.212 a 3.191,3.191 0 0 0 1.023,-0.029 3.1172874,3.1172874 0 1 0 -1.2,-6.118 z" class="cls-3" data-name="Path 53" transform="translate(-538.877,-334.284)" />
        <path id="Path_54" d="m 361.717,292.315 a 1.511,1.511 0 0 0 0.553,-2.064 1.511,1.511 0 0 0 -2.064,-0.553 1.511,1.511 0 0 0 -0.553,2.064 1.511,1.511 0 0 0 2.064,0.553 z" class="cls-2" data-name="Path 54" transform="translate(-354.414,-284.203)" />
        <path id="Path_55" d="m 272.52,343.821 a 1.511,1.511 0 0 0 0.553,-2.064 1.511,1.511 0 0 0 -2.064,-0.553 1.511,1.511 0 0 0 -0.553,2.064 1.511,1.511 0 0 0 2.064,0.553 z" class="cls-2" data-name="Path 55" transform="translate(-270.254,-332.8)" />
        <path id="Path_56" d="m 355.048,200.312 a 9.092,9.092 0 0 0 -12.3,-3.392 l -0.116,0.066 a 8.935,8.935 0 0 0 -0.8,0.517 l -0.019,0.013 a 15.084,15.084 0 0 0 -5.99,8.518 q -0.086,0.323 -0.159,0.649 a 0.6,0.6 0 0 1 -0.858,0.4 19.055,19.055 0 0 0 -3.759,-1.448 q -0.69,-0.185 -1.392,-0.317 a 1.489,1.489 0 0 0 -1.681,0.971 q -0.236,0.673 -0.42,1.364 a 18.906,18.906 0 0 0 1.9,14.392 l 0.023,0.04 0.053,0.091 0.059,0.1 a 18.919,18.919 0 0 0 12.775,8.924 1.489,1.489 0 0 0 1.681,-0.971 q 0.236,-0.674 0.42,-1.364 a 19.061,19.061 0 0 0 0.624,-3.945 0.6,0.6 0 0 1 0.778,-0.542 15.1,15.1 0 0 0 9.831,-0.228 9.086,9.086 0 0 0 2.053,-0.871 9.184,9.184 0 0 0 1.022,-0.686 9.092,9.092 0 0 0 -2.7,-15.815 9.056,9.056 0 0 0 -1.025,-6.466 z m -1.387,14.12 a 3.117,3.117 0 0 1 -2.46,3.658 3.191,3.191 0 0 1 -1.023,0.029 l -8.831,-1.213 h -0.031 a 1.776,1.776 0 0 1 -1.518,-2 1.856,1.856 0 0 1 0.111,-0.418 l 3.4,-8.5 a 3.029,3.029 0 0 1 3.866,-1.734 3,3 0 0 1 1.717,3.914 3.092,3.092 0 0 1 -0.443,0.76 l -1.842,2.3 a 0.787,0.787 0 0 0 0.765,1.264 l 2.631,-0.515 a 3.117,3.117 0 0 1 3.657,2.455 z" class="cls-2" data-name="Path 56" transform="translate(-323.703,-195.765)" />
      </g>
      <path id="Rectangle_160" d="M 0,0 H 180.198 V 47.292 H 0 Z" class="cls-3" data-name="Rectangle 160" />
    </g>
  </g>
</svg>